<svg enable-background="new 0 0 100 100" viewBox="0 0 100 100" xmlns="http://www.w3.org/2000/svg" xmlns:xlink="http://www.w3.org/1999/xlink"><linearGradient id="a"><stop offset="0" stop-color="#ff9d00"/><stop offset=".2624" stop-color="#f75831"/><stop offset=".5" stop-color="#f11e5a"/><stop offset="1" stop-color="#9800a6"/></linearGradient><linearGradient id="b" gradientUnits="userSpaceOnUse" x1="90.9549" x2="21.0224" xlink:href="#a" y1="32.548" y2="104.2106"/><linearGradient id="c" gradientUnits="userSpaceOnUse" x1="11.0002" x2="85.9541" xlink:href="#a" y1="63.1718" y2="-2.2147"/><linearGradient id="d" gradientUnits="userSpaceOnUse" x1="4.1665" x2="73.497" y1="69.1332" y2="8.6523"><stop offset="0" stop-color="#ff9d00"/><stop offset=".0836" stop-color="#fc8b2b"/><stop offset=".3736" stop-color="#f44ebd"/><stop offset=".5" stop-color="#f036f7"/><stop offset="1" stop-color="#a04bf7"/></linearGradient><linearGradient id="e" gradientUnits="userSpaceOnUse" x1="94.7346" x2="30.0061" y1="28.6749" y2="95.0046"><stop offset="0" stop-color="#23d2fc"/><stop offset=".5" stop-color="#1babf9"/><stop offset="1" stop-color="#0a49e5"/></linearGradient><linearGradient id="f" gradientUnits="userSpaceOnUse" x1="4.1665" x2="73.497" y1="69.1332" y2="8.6523"><stop offset="0" stop-color="#ff9d00"/><stop offset=".2624" stop-color="#f75831"/><stop offset=".5" stop-color="#f11e5a"/><stop offset="1" stop-color="#a00b7d"/></linearGradient><path d="m75.79 11.7c4.29 2.49 3.62 10.29 1.15 15.47l-16.73 33.6c-.53 1.07-1.88 1.89-3.02 1.83l-29.53-.02-5.21 10.48c-2.47 5.18-3.15 12.98 1.15 15.47 3.13 1.44 5.51 1.67 9.64 1.67l28.56.02c7.2.01 15.69-5.42 18.97-12.19l12.55-25.96c6.23-13.5-5.2-33.67-17.53-40.37z" fill="url(#b)"/><path d="m23.59 88.53c-4.29-2.49-3.62-10.29-1.15-15.47l16.73-33.61c.53-1.07 1.88-1.89 3.02-1.83l29.53.02 5.21-10.48c2.47-5.18 3.15-12.98-1.15-15.47-3.13-1.44-5.51-1.67-9.64-1.67l-28.56-.02c-7.2-.01-15.69 5.42-18.97 12.19l-12.54 25.96c-6.24 13.51 5.19 33.68 17.52 40.38z" fill="url(#c)"/><path d="m23.59 88.53c-4.29-2.49-3.62-10.29-1.15-15.47l16.73-33.61c.53-1.07 1.88-1.89 3.02-1.83l29.53.02 5.21-10.48c2.47-5.18 3.15-12.98-1.15-15.47-3.13-1.44-5.51-1.67-9.64-1.67l-28.56-.02c-7.2-.01-15.69 5.42-18.97 12.19l-12.54 25.96c-6.24 13.51 5.19 33.68 17.52 40.38z" fill="url(#d)"/><path d="m75.79 11.7c4.29 2.49 3.62 10.29 1.15 15.47l-16.73 33.6c-.53 1.07-1.88 1.89-3.02 1.83l-29.53-.02-5.21 10.48c-2.47 5.18-3.15 12.98 1.15 15.47 3.13 1.44 5.51 1.67 9.64 1.67l28.56.02c7.2.01 15.69-5.42 18.97-12.19l12.55-25.96c6.23-13.5-5.2-33.67-17.53-40.37z" fill="url(#e)"/><path d="m23.59 88.53c-4.29-2.49-3.62-10.29-1.15-15.47l16.73-33.61c.53-1.07 1.88-1.89 3.02-1.83l29.53.02 5.21-10.48c2.47-5.18 3.15-12.98-1.15-15.47-3.13-1.44-5.51-1.67-9.64-1.67l-28.56-.02c-7.2-.01-15.69 5.42-18.97 12.19l-12.54 25.96c-6.24 13.51 5.19 33.68 17.52 40.38z" fill="url(#f)"/></svg>